<?xml version="1.0" encoding="UTF-8"?>
<svg xmlns="http://www.w3.org/2000/svg" xmlns:xlink="http://www.w3.org/1999/xlink" version="1.1" id="Capa_1" x="0px" y="0px" viewBox="0 0 512 512" style="enable-background:new 0 0 512 512;" xml:space="preserve" width="512" height="512">
<g>
	<path style="fill-rule:evenodd;clip-rule:evenodd;fill:none;stroke:#000000;stroke-width:15.0001;stroke-miterlimit:22.9256;" d="&#10;&#9;&#9;M452,473.5H22.5c-8.248,0-15-6.75-15-15V106 M7.5,91V53.5c0-8.25,6.75-15,15-15h482v435H467"/>

		<line style="fill-rule:evenodd;clip-rule:evenodd;fill:none;stroke:#000000;stroke-width:15.0001;stroke-miterlimit:22.9256;" x1="69.5" y1="38.5" x2="69.5" y2="473.5"/>
	<path style="fill-rule:evenodd;clip-rule:evenodd;fill:none;stroke:#000000;stroke-width:15.0001;stroke-miterlimit:22.9256;" d="&#10;&#9;&#9;M287,68.5c-103.563,0-187.5,83.937-187.5,187.5S183.437,443.5,287,443.5S474.5,359.563,474.5,256S390.562,68.5,287,68.5L287,68.5z&#10;&#9;&#9; M287,188.5c37.271,0,67.5,30.229,67.5,67.5c0,37.271-30.229,67.5-67.5,67.5c-37.271,0-67.5-30.229-67.5-67.5&#10;&#9;&#9;C219.5,218.729,249.729,188.5,287,188.5L287,188.5z M287,218.5c-20.712,0-37.5,16.788-37.5,37.5c0,20.712,16.788,37.5,37.5,37.5&#10;&#9;&#9;c20.713,0,37.5-16.788,37.5-37.5C324.5,235.288,307.712,218.5,287,218.5z"/>
	<path style="fill-rule:evenodd;clip-rule:evenodd;fill:none;stroke:#000000;stroke-width:15.0001;stroke-miterlimit:22.9256;" d="&#10;&#9;&#9;M474.5,76V61 M474.5,106V91"/>
	<path style="fill-rule:evenodd;clip-rule:evenodd;fill:none;stroke:#000000;stroke-width:15.0001;stroke-miterlimit:22.9256;" d="&#10;&#9;&#9;M258.667,317.283l-56.292,106.094 M348.282,227.668l106.093-56.292 M371.624,88.624l-56.292,106.094 M119.624,340.625&#10;&#9;&#9;l106.093-56.292"/>
</g>















</svg>
